<svg xmlns="http://www.w3.org/2000/svg" width="572" height="572" viewBox="24 63.75 572 572" enable-background="new 24 63.75 572 572"><g><path fill="#EDAD21" d="M310 65.75c-156.849 0-284 127.151-284 284s127.151 284 284 284 284-127.151 284-284-127.151-284-284-284zm166 145.75l-105.443 111.512-28.414 36.378 56.19 183.933-81.333-65.489 4.426-21.529-141.093-56.305-27.224-68.167h-50.109l35.333-37 90.071 12.75 73.929-105.583 179.667-21.667-24.344 31.167h18.344z"/><polygon fill="#EDAD21" points="298,501.5 330.666,416.666 306,524.5"/><polyline fill="#EDAD21" points="153.167,356.667 143.573,307.904 162.667,356.667"/><polyline fill="#EDAD21" points="482,180.333 430.683,246.034 492.5,180.333"/></g></svg>