<?xml version="1.0" encoding="utf-8"?> <!-- Generator: IcoMoon.io --> <!DOCTYPE svg PUBLIC "-//W3C//DTD SVG 1.1//EN" "http://www.w3.org/Graphics/SVG/1.1/DTD/svg11.dtd"> <svg width="32" height="32" viewBox="0 0 32 32" xmlns="http://www.w3.org/2000/svg" xmlns:xlink="http://www.w3.org/1999/xlink" fill="#000000"><g><path d="M 30.721,6.774l-9.197,9.253l 9.197,9.198c 0.385,0.384, 0.385,1.007,0,1.392 l-4.176,4.175c-0.383,0.385-1.006,0.385-1.391,0l-9.182-9.182l-9.127,9.182c-0.384,0.385-1.007,0.385-1.392,0l-4.175-4.175 c-0.384-0.385-0.384-1.008,0-1.392l 9.127-9.182L 1.279,6.917c-0.384-0.384-0.384-1.007,0-1.392l 4.175-4.175 c 0.384-0.385, 1.007-0.385, 1.392,0l 9.11,9.11l 9.199-9.253c 0.385-0.385, 1.008-0.385, 1.391,0l 4.176,4.175 C 31.105,5.767, 31.105,6.39, 30.721,6.774z"></path></g></svg>