<?xml version="1.0" encoding="utf-8"?> <!-- Generator: IcoMoon.io --> <!DOCTYPE svg PUBLIC "-//W3C//DTD SVG 1.1//EN" "http://www.w3.org/Graphics/SVG/1.1/DTD/svg11.dtd"> <svg width="32" height="32" viewBox="0 0 32 32" xmlns="http://www.w3.org/2000/svg" xmlns:xlink="http://www.w3.org/1999/xlink" fill="#000000"><g><path d="M 7,24L 1,24 c-0.553,0-1,0.447-1,1l0,6 c0,0.553, 0.447,1, 1,1l 6,0 c 0.553,0, 1-0.447, 1-1l0-6 C 8,24.447, 7.553,24, 7,24z M 6,29c0,0.553-0.447,1-1,1L 3,30 c-0.553,0-1-0.447-1-1l0-2 c0-0.553, 0.447-1, 1-1l 2,0 c 0.553,0, 1,0.447, 1,1L 6,29 z M 31,26L 13,26 c-0.553,0-1,0.447-1,1l0,2 c0,0.553, 0.447,1, 1,1l 18,0 c 0.553,0, 1-0.447, 1-1l0-2 C 32,26.447, 31.553,26, 31,26z M 31,14L 13,14 c-0.553,0-1,0.447-1,1l0,2 c0,0.553, 0.447,1, 1,1l 18,0 c 0.553,0, 1-0.447, 1-1l0-2 C 32,14.447, 31.553,14, 31,14z M 7,0L 1,0 C 0.447,0,0,0.447,0,1l0,6 c0,0.553, 0.447,1, 1,1l 6,0 c 0.553,0, 1-1.447, 1-2L 8,1 C 8,0.447, 7.553,0, 7,0z M 6,5c0,0.553-0.447,1-1,1L 3,6 C 2.447,6, 2,5.553, 2,5L 2,3 c0-0.553, 0.447-1, 1-1l 2,0 c 0.553,0, 1,0.447, 1,1L 6,5 z M 7,12L 1,12 c-0.553,0-1,0.447-1,1l0,6 c0,0.553, 0.447,1, 1,1l 6,0 c 0.553,0, 1-0.447, 1-1l0-6 C 8,12.447, 7.553,12, 7,12z M 6,17c0,0.553-0.447,1-1,1L 3,18 c-0.553,0-1-0.447-1-1l0-2 c0-0.553, 0.447-1, 1-1l 2,0 c 0.553,0, 1,0.447, 1,1L 6,17 z M 31,2L 13,2 c-0.553,0-1,0.447-1,1l0,2 c0,0.553, 0.447,1, 1,1l 18,0 c 0.553,0, 1-0.447, 1-1L 32,3 C 32,2.447, 31.553,2, 31,2z"></path></g></svg>