<?xml version="1.0" encoding="utf-8"?> <!-- Generator: IcoMoon.io --> <!DOCTYPE svg PUBLIC "-//W3C//DTD SVG 1.1//EN" "http://www.w3.org/Graphics/SVG/1.1/DTD/svg11.dtd"> <svg width="32" height="32" viewBox="0 0 32 32" xmlns="http://www.w3.org/2000/svg" xmlns:xlink="http://www.w3.org/1999/xlink" fill="#000000"><g><path d="M 16,0C 7.163,0,0,7.164,0,16c0,8.836, 7.163,16, 16,16s 16-7.164, 16-16 C 32,7.164, 24.837,0, 16,0z M 18,27.82L 18,24 c0-0.553-0.447-1-1-1l-2,0 c-0.553,0-1,0.447-1,1l0,3.82 C 8.979,26.976, 5.018,23.020, 4.173,18L 8,18 c 0.553,0, 1-0.447, 1-1l0-2 c0-0.553-0.447-1-1-1L 4.18,14 C 5.024,8.978, 8.98,5.018, 14,4.173L 14,8 c0,0.552, 0.447,1, 1,1l 2,0 c 0.553,0, 1-0.448, 1-1 L 18,4.173 c 5.020,0.845, 8.976,4.805, 9.82,9.827L 24,14 c-0.553,0-1,0.447-1,1l0,2 c0,0.553, 0.447,1, 1,1l 3.827,0 C 26.982,23.020, 23.021,26.976, 18,27.82z"></path></g></svg>