<?xml version="1.0" encoding="utf-8"?>
<!-- Generator: Adobe Illustrator 16.0.4, SVG Export Plug-In . SVG Version: 6.00 Build 0)  -->
<!DOCTYPE svg PUBLIC "-//W3C//DTD SVG 1.1//EN" "http://www.w3.org/Graphics/SVG/1.1/DTD/svg11.dtd">
<svg version="1.1" id="Layer_1" xmlns="http://www.w3.org/2000/svg" xmlns:xlink="http://www.w3.org/1999/xlink" x="0px" y="0px"
	 width="126px" height="126px" viewBox="-0.333 -0.333 126 126" enable-background="new -0.333 -0.333 126 126"
	 xml:space="preserve">
<g>
	<path fill="none" d="M62.667,8.666c-29.824,0-54.001,24.177-54.001,54.001s24.177,54.001,54.001,54.001
		s54.001-24.177,54.001-54.001S92.491,8.666,62.667,8.666z M68.138,95.493L56.413,71.33l-27.062,2.008l49.05-40.504L68.138,95.493z"
		/>
	<path fill="#EEAD21" d="M62.667,0C28.057,0,0,28.057,0,62.667c0,34.609,28.057,62.667,62.667,62.667
		c34.609,0,62.667-28.058,62.667-62.667C125.334,28.057,97.276,0,62.667,0z M62.667,116.668c-29.824,0-54.001-24.177-54.001-54.001
		S32.843,8.666,62.667,8.666s54.001,24.177,54.001,54.001S92.491,116.668,62.667,116.668z"/>
	<polygon fill="#EEAD21" points="56.413,71.33 68.138,95.493 78.401,32.834 29.352,73.338 	"/>
</g>
<image display="none" overflow="visible" enable-background="new    " width="128" height="128" xlink:href="359962471625FE76.png"  transform="matrix(1 0 0 1 242 332)">
</image>
</svg>
