<?xml version="1.0" encoding="utf-8"?>
<!-- Generator: Adobe Illustrator 15.1.0, SVG Export Plug-In . SVG Version: 6.00 Build 0)  -->
<!DOCTYPE svg PUBLIC "-//W3C//DTD SVG 1.1//EN" "http://www.w3.org/Graphics/SVG/1.1/DTD/svg11.dtd">
<svg version="1.1" id="Layer_1" xmlns="http://www.w3.org/2000/svg" xmlns:xlink="http://www.w3.org/1999/xlink" x="0px" y="0px"
	 width="32.096px" height="32.096px" viewBox="0 0 32.096 32.096" enable-background="new 0 0 32.096 32.096" xml:space="preserve">
<g>
	<path fill="#FFFFFF" d="M31.715,28.953c0.381,0.381,0.381,0.999,0,1.381l-1.381,1.381c-0.382,0.381-1,0.381-1.381,0l-9.668-9.668
		c-0.105-0.105-0.176-0.229-0.223-0.361C17.08,23.135,14.645,24,12,24C5.373,24,0,18.627,0,12S5.373,0,12,0s12,5.373,12,12
		c0,2.645-0.865,5.08-2.314,7.062c0.132,0.047,0.256,0.116,0.361,0.223L31.715,28.953z M12,4c-4.418,0-8,3.582-8,8s3.582,8,8,8
		s8-3.582,8-8S16.418,4,12,4z"/>
</g>
</svg>
