<?xml version="1.0" encoding="utf-8"?>
<!-- Generator: Adobe Illustrator 16.0.4, SVG Export Plug-In . SVG Version: 6.00 Build 0)  -->
<!DOCTYPE svg PUBLIC "-//W3C//DTD SVG 1.1//EN" "http://www.w3.org/Graphics/SVG/1.1/DTD/svg11.dtd">
<svg version="1.1" id="Layer_1" xmlns="http://www.w3.org/2000/svg" xmlns:xlink="http://www.w3.org/1999/xlink" x="0px" y="0px"
	 width="32px" height="20px" viewBox="-0.023 -0.008 32 20" enable-background="new -0.023 -0.008 32 20" xml:space="preserve">
<g id="eye">
	<path fill="#EEAD21" d="M31.919,9.779c-0.01-0.042-0.004-0.087-0.021-0.128c-0.006-0.017-0.021-0.025-0.026-0.042
		c-0.01-0.023-0.008-0.051-0.021-0.073c-2.898-5.552-9.213-9.528-15.873-9.528c-6.661,0-12.973,3.971-15.875,9.521
		C0.09,9.552,0.092,9.579,0.082,9.602C0.075,9.619,0.061,9.628,0.055,9.644c-0.016,0.041-0.01,0.086-0.02,0.128
		C0.017,9.847,0,9.92,0,9.997c0,0.076,0.018,0.147,0.035,0.224c0.01,0.042,0.004,0.087,0.02,0.128
		c0.006,0.017,0.021,0.026,0.027,0.042c0.01,0.024,0.008,0.051,0.021,0.074c2.901,5.551,9.214,9.528,15.875,9.528
		c6.66,0,12.973-3.973,15.873-9.521c0.016-0.023,0.014-0.05,0.021-0.074c0.006-0.016,0.021-0.024,0.026-0.042
		c0.017-0.041,0.011-0.086,0.021-0.128c0.017-0.076,0.035-0.147,0.035-0.224S31.936,9.854,31.919,9.779z M15.977,17.99
		c-5.615,0-11.112-3.189-13.851-7.994c2.754-4.811,8.243-7.99,13.851-7.99c5.614,0,11.11,3.191,13.851,7.995
		C27.074,14.813,21.585,17.99,15.977,17.99z"/>
	<path fill="#EEAD21" d="M15.977,6.003c-0.002,0-0.004,0.001-0.006,0.001C13.766,6.008,11.979,7.795,11.979,10
		c0,0.275,0.224,0.5,0.5,0.5c0.275,0,0.499-0.225,0.499-0.5c0-1.652,1.345-2.997,2.999-2.997V7.002c0.274,0,0.499-0.225,0.499-0.499
		C16.475,6.225,16.253,6.003,15.977,6.003z"/>
	<path fill="#EEAD21" d="M15.955,3.004c-3.868,0-7,3.134-7,7c0,3.866,3.134,7,7,7c3.865,0,7-3.135,7-7
		C22.955,6.136,19.82,3.004,15.955,3.004z M15.955,16.004c-3.31,0-6-2.691-6-6c0-3.31,2.691-6,6-6c3.309,0,6,2.69,6,6
		C21.955,13.313,19.263,16.004,15.955,16.004z"/>
</g>
</svg>
