<?xml version="1.0" encoding="utf-8"?> <!-- Generator: IcoMoon.io --> <!DOCTYPE svg PUBLIC "-//W3C//DTD SVG 1.1//EN" "http://www.w3.org/Graphics/SVG/1.1/DTD/svg11.dtd"> <svg width="32.39099884033203" height="32" viewBox="0 0 32.39099884033203 32" xmlns="http://www.w3.org/2000/svg" xmlns:xlink="http://www.w3.org/1999/xlink" fill="#000000"><g><path d="M 31.576,26.211l-11.999-24C 18.9,0.856, 17.516,0, 16,0s-2.9,0.856-3.577,2.211 l-11.999,24c-0.62,1.24-0.554,2.713, 0.175,3.893C 1.328,31.282, 2.615,32, 4.001,32l 23.997,0 c 1.387,0, 2.674-0.718, 3.402-1.896 C 32.129,28.924, 32.195,27.451, 31.576,26.211z M 17.998,27c0,0.553-0.447,1-1,1l-2,0 c-0.553,0-1-0.447-1-1l0-2 c0-0.553, 0.447-1, 1-1l 2,0 c 0.553,0, 1,0.447, 1,1L 17.998,27 z M 17.998,19c0,0.553-0.447,1-1,1l-2,0 c-0.553,0-1-0.447-1-1L 13.998,9 c0-0.552, 0.447-1, 1-1l 2,0 c 0.553,0, 1,0.448, 1,1 L 17.998,19 z"></path></g></svg>